<svg xmlns="http://www.w3.org/2000/svg" height="800" width="1200" viewBox="-98.4108 -43.08525 852.8936 258.5115"><path d="M15.092 81.38h39.97v-4.135L48 76.67q-3.044-.23-3.848-1.78-.976-1.264-.976-4.538V4.942h5.513q8.615 0 11.773 3.388 3.216 3.79 5.054 12.807h4.135V.003H.505v21.134h4.078Q6.593 12.12 9.809 8.33q3.158-3.388 11.6-3.388h5.57v65.411q0 3.274-.746 4.537-.919 1.55-4.077 1.78l-7.064.575zm144.865-37.731h6.375q9.533-.23 12.003 9.533.689 2.929 1.608 7.753.861 4.71 2.01 9.246 2.814 11.429 17.63 11.199h9.074v-4.135q-3.503-.345-5.743-2.355-4.824-4.307-5.915-13.38-.46-3.791-1.263-7.064-.862-3.16-2.585-5.858-1.665-2.7-4.594-4.71-2.929-2.01-7.523-3.1v-.23q8.786-1.493 14.242-6.662 5.284-5.284 5.399-13.324.114-8.786-5.916-14.702Q188.557.118 172.88.003H134v4.135q6.662.114 8.327 1.263 1.551 1.206 1.436 5.743V70.18q.115 4.365-1.436 5.686-1.665 1.148-8.327 1.378v4.135h35.721v-4.135q-6.432-.23-8.212-1.378-1.666-1.321-1.55-5.686zm0-4.939V9.995q-.115-2.814 1.436-4.02 1.493-1.033 6.432-1.033 3.216 0 6.03.689 2.929.861 5.054 2.699 4.48 3.79 4.594 13.209.23 16.941-16.482 17.171zm183.975-27.566q-.115-4.537 1.55-5.743 1.78-1.149 8.213-1.263V.003h-35.721v4.135q6.719.114 8.327 1.263 1.55 1.206 1.436 5.743v42.498q0 4.479-.575 8.786-.746 4.25-2.584 7.925-1.895 3.504-5.226 5.628-3.503 2.24-8.787 2.24-5.053 0-8.5-2.24-3.273-2.124-5.283-5.628-1.895-3.56-2.584-8.04-.804-4.192-.804-8.671V11.144q-.115-4.537 1.493-5.743 1.78-1.149 8.27-1.263V.003h-35.778v4.135q6.719.114 8.384 1.263 1.493 1.206 1.379 5.743v42.268q0 10.797 3.56 17.4 3.963 6.778 11.716 9.534 7.695 2.814 18.147 2.814 10.223 0 17.86-2.814 7.639-2.986 11.774-9.648 3.503-6.604 3.733-17.286zm74.916 70.236h28.14v-4.135l-6.26-.574q-4.708-.345-5.053-5.858-.69-5.456-.69-16.942V11.26h.345l27.05 68.226h5.742l26.705-68.226h.345v58.92q.114 4.365-1.379 5.686-1.665 1.148-8.384 1.378v4.135h35.204v-4.135q-6.49-.23-8.27-1.378-1.608-1.321-1.493-5.686V11.144q-.115-4.537 1.493-5.743 1.78-1.149 8.27-1.263V.003h-27.624l-22.742 56.682h-.23L447.219.003h-28.6v4.135q6.72.114 8.385 1.263 1.493 1.206 1.378 5.743V53.87q0 11.773-.574 16.942-.574 5.628-4.709 5.973l-4.25.459zm194.14-72.074q-.115-2.47 1.435-3.56 1.379-.804 6.203-.804 7.178 0 11.773 4.48 4.48 4.708 4.594 14.7 0 8.443-4.135 13.841-4.192 5.686-12.807 5.8-4.134.116-5.628-.86-1.55-.92-1.435-4.078zM587.03 81.38h37.616v-4.135q-7.868-.23-9.878-1.378-1.895-1.321-1.78-5.686V48.703h6.719q6.949 0 12.462-1.206 5.513-1.034 9.418-3.044 5.284-2.7 8.902-7.753 3.56-5.054 3.675-12.922-.344-14.127-9.648-19.066-8.959-4.824-22.684-4.71H587.03v4.136q6.661.114 8.327 1.263 1.55 1.206 1.436 5.743V70.18q.114 4.365-1.436 5.686-1.666 1.148-8.327 1.378z" font-size="75" font-family="utopia" letter-spacing="37.262" word-spacing="0" font-weight="700"/><path d="M.302 106.511h655.77v-1.729H.282zm-.05 65.83h655.77v-1.729H.232z"/><g style="line-height:125%" font-size="40" font-family="sans-serif" letter-spacing="0" word-spacing="0"><path d="M18.456 134.608h-1.327q-.984-3.01-1.212-3.409-.214-.4-.613-.556-.4-.171-2.539-.171h-1.383v13.321q0 2.482.17 2.995.086.271.414.443.343.156 2.596.556v1.055q-4.35-.157-5.59-.157-1.684 0-5.15.157v-1.055q2.282-.4 2.71-.628.286-.157.385-.513.115-.371.115-2.995v-13.18H4.635q-1.212 0-1.611.2-.385.2-.642.728-.385.799-1.084 3.21H0q.242-2.098.3-2.896.057-.799.128-3.11 5.648.157 11.04.129 4.563-.043 6.56-.129.014 2.753.428 6.005zm11.57-4.949v-1.056q2.581.157 5.248.157 2.781 0 5.506-.157v1.056q-2.168.37-2.553.542-.371.157-.528.5-.143.341-.143 2.081l.014.985-.014 3.665q2.026.071 4.336.071 2.082 0 3.637-.07l-.028-5.064q0-1.355-.157-1.697-.157-.343-.6-.514-.342-.143-2.438-.5v-1.055q2.752.157 5.063.157 2.168 0 5.69-.157v1.056l-2.267.485q-.37.1-.528.242-.142.143-.214.357-.142.47-.17 2.952-.03 3.937-.03 5.135 0 4.878.072 7.188.029.77.357 1.084.328.3 2.225.6l.556.085v1.055q-3.01-.157-5.363-.157-2.325 0-5.391.157v-1.055l2.396-.485q.428-.143.599-.428.185-.3.185-1.326l.043-6.29-3.922-.057q-.271 0-4.05.057.014 5.833.085 6.974.043.614.356.899.328.285 2.168.556.2.029.614.1v1.055q-3.167-.157-5.677-.157-2.581 0-5.077.157v-1.055q1.968-.385 2.381-.528.414-.142.585-.442.186-.314.186-1.355l.057-5.562q0-4.35-.043-7.431-.014-1.512-.243-1.897-.128-.243-.456-.385-.314-.143-2.467-.528z" font-weight="700" font-size="25" font-family="Calisto MT" letter-spacing="9.219"/><path d="M64.244 129.659v-1.056q3.438.172 7.474.172 4.678 0 9.642-.172.042 2.996.356 5.206h-1.212q-.171-.456-.243-.699-.699-2.04-1.098-2.367-.4-.328-1.797-.328h-5.448q-.115 2.41-.143 7.003l2.482.028q1.94 0 2.382-.37.456-.386.955-2.554h1.184q-.157 2.097-.157 3.695 0 1.526.157 3.808h-1.184q-.4-2.31-.77-2.653-.37-.343-2.24-.343H71.79v7.973h5.677q.941 0 1.255-.114.5-.185.913-.656.87-.956 2.04-3.024h1.254q-.827 2.34-1.782 5.634-4.864-.157-10.17-.157-2.41 0-6.732.157v-1.055q2.368-.428 2.71-.685.47-.328.47-1.654v-.485l.03-5.648v-4.564l-.015-2.111q0-1.526-.157-1.897t-.613-.585q-.442-.214-2.425-.5z" letter-spacing="8.811"/><path d="M130.759 134.608h-1.327q-.984-3.01-1.212-3.409-.214-.4-.613-.556-.4-.171-2.539-.171h-1.384v13.321q0 2.482.172 2.995.085.271.413.443.343.156 2.596.556v1.055q-4.35-.157-5.59-.157-1.684 0-5.15.157v-1.055q2.282-.4 2.71-.628.285-.157.385-.513.114-.371.114-2.995v-13.18h-2.396q-1.212 0-1.611.2-.386.2-.642.728-.385.799-1.084 3.21h-1.298q.242-2.098.3-2.896.056-.799.128-3.11 5.648.157 11.04.129 4.563-.043 6.56-.129.014 2.753.428 6.005zm11.512-4.949v-1.056q4.821.157 5.691.157.927 0 2.682-.042 1.754-.057 2.581-.057 2.125 0 3.309.542 1.184.542 1.897 1.725.727 1.184.727 2.639 0 1.24-.513 2.396-.514 1.141-1.37 1.94-.556.528-1.782 1.14.97 1.67 2.838 4.722 1.37 2.239 1.783 2.681.428.442.913.685.741.342 2.71.656v1.055q-2.425-.157-3.951-.157-1.612 0-3.965.157-1.74-4.008-4.464-9.17-.813-.03-1.698-.115l.043 5.933q.029 1.099.186 1.37.156.256.442.37.2.1 2.553.557v1.055q-3.323-.157-5.334-.157-1.983 0-5.278.157v-1.055q2.425-.442 2.724-.685.314-.242.4-.955.043-.386.057-7.317l-.014-4.25q0-2.996-.115-3.609-.085-.442-.399-.656-.3-.228-2.011-.528l-.642-.128zm7.403 8.287q.713.028 1.055.028 1.997 0 2.938-.941.956-.956.956-2.896 0-1.825-.899-2.78-.898-.97-2.439-.97-.627 0-1.626.1l.015 7.458zm23.436-8.287v-1.056q3.337.157 5.348.157 2.011 0 5.292-.157v1.056q-2.097.342-2.625.585-.342.142-.456.413-.143.357-.143 1.883v7.302q0 2.824.314 3.837.4 1.34 1.54 2.154 1.142.813 3.224.813 2.296 0 3.466-.927 1.17-.942 1.497-2.468.343-1.526.343-5.234 0-.856-.114-4.821-.072-2.196-.214-2.581-.086-.229-.3-.357-.27-.185-1.854-.485-.185-.043-.556-.114v-1.056q3.01.157 4.264.157 1.484 0 3.88-.157v1.056q-2.168.4-2.51.642-.343.242-.414.713-.129.799-.171 7.26-.029 3.708-.186 4.863-.242 1.583-.784 2.582-.528.984-1.57 1.825-1.026.842-2.281 1.227-1.655.5-3.537.5-3.18 0-5.05-.914-1.868-.927-2.61-2.41-.727-1.498-.727-4.365v-8.814q0-1.697-.17-2.14-.13-.285-.457-.427-.314-.143-2.44-.542zm33.92 0v-1.056q2.552.157 4.207.157 1.768 0 3.836-.157.6 1.626 1.57 3.851 2.652 5.99 4.692 10.17l3.594-7.76q.856-1.896 1.355-3.108.513-1.227 1.226-3.153 2.71.157 3.937.157 1.055 0 3.822-.157v1.056q-.428.085-.642.114-1.84.314-2.139.57-.285.257-.37 1.07-.072.799-.072 6.461 0 7.189.014 7.502.043 1.127.157 1.384.128.257.314.37.499.286 2.096.528l.642.129v1.055q-3.451-.157-5.263-.157-1.868 0-5.52.157v-1.055q2.254-.414 2.525-.528.285-.128.428-.328.143-.2.185-.542.057-.342.057-2.924.029-5.605.029-8.757 0-.3-.014-1.868-.785 1.625-5.734 12.665l-1.44 3.18h-1.099q-1.611-3.637-7.26-15.945-.028 1.868-.028 3.166 0 7.117.129 9.413.07 1.313.142 1.47.1.27.428.442.328.17 1.94.442.2.042.585.114v1.055q-2.026-.157-3.908-.157-1.897 0-4.322.157v-1.055q1.854-.328 2.253-.47.4-.143.6-.471.2-.328.2-1.227l.17-9.071q.043-2.382.043-3.537 0-1.783-.185-2.34-.114-.342-.442-.513-.314-.171-2.069-.4-.228-.028-.67-.099z" font-weight="700" font-size="25" font-family="Calisto MT" letter-spacing="9.219"/><path d="M246.44 129.659v-1.056q3.95.157 6.19.157l4.792-.07q2.14 0 3.38.455 1.24.457 2.011 1.67.77 1.212.77 2.937 0 2.767-1.882 4.564-1.883 1.783-5.15 1.783-1.012 0-2.524-.242.029 3.822.029 4.421l-.014 1.041q0 1.37.228 1.64.37.457 2.638.728.257.029.77.1v1.055q-4.079-.157-5.89-.157-2.097 0-5.349.157v-1.055q2.51-.442 2.796-.699.3-.257.357-.956.057-.698.1-7.73l-.015-4.322q-.014-2.61-.1-3.066-.085-.456-.37-.656-.371-.257-2.14-.585-.214-.028-.628-.114zm7.587 8.586q.87.086 1.498.086 1.654 0 2.581-1.013t.927-3.138q0-1.883-.912-2.852-.913-.97-2.596-.97-.642 0-1.498.142v7.745z" letter-spacing="8.759"/><path d="M293.679 139.044q0-4.892 2.995-7.873 3.01-2.995 8.058-2.995 4.764 0 7.474 2.695 2.724 2.682 2.724 7.189 0 2.866-1.07 5.22-.841 1.868-2.182 3.152-1.326 1.283-2.724 1.911-2.082.927-5.02.927-4.878 0-7.574-2.696-2.681-2.695-2.681-7.53zm4.934-.77q0 5.191 1.883 7.63 1.398 1.826 4.008 1.826 1.797 0 3.024-.927 1.24-.927 1.854-2.967.613-2.054.613-4.764 0-2.068-.37-3.965-.372-1.897-1.013-2.966-.642-1.07-1.726-1.726-1.07-.656-2.596-.656-1.697 0-3.024.955-1.326.942-1.996 2.981-.657 2.026-.657 4.579z" letter-spacing="9.024"/><path d="M326.943 129.659v-1.056q4.82.157 5.69.157.927 0 2.682-.042 1.754-.057 2.581-.057 2.125 0 3.31.542 1.183.542 1.896 1.725.728 1.184.728 2.639 0 1.24-.514 2.396-.513 1.141-1.37 1.94-.555.528-1.782 1.14.97 1.67 2.838 4.722 1.37 2.239 1.783 2.681.428.442.913.685.742.342 2.71.656v1.055q-2.425-.157-3.95-.157-1.613 0-3.966.157-1.74-4.008-4.464-9.17-.813-.03-1.697-.115l.042 5.933q.029 1.099.186 1.37.157.256.442.37.2.1 2.553.557v1.055q-3.323-.157-5.334-.157-1.983 0-5.277.157v-1.055q2.424-.442 2.724-.685.314-.242.4-.955.042-.386.056-7.317l-.014-4.25q0-2.996-.114-3.609-.086-.442-.4-.656-.3-.228-2.01-.528l-.642-.128zm7.402 8.287q.713.028 1.055.028 1.997 0 2.938-.941.956-.956.956-2.896 0-1.825-.898-2.78-.899-.97-2.44-.97-.627 0-1.625.1l.014 7.458zm47.754.384v1.042q-1.954.356-2.482.613-.256.128-.385.485-.128.357-.128 2.196 0 2.939.085 5.192-.97.171-2.125.414-3.023.656-4.364.827-1.327.171-2.853.171-3.551 0-5.62-.884-2.58-1.127-3.95-3.48-1.37-2.354-1.37-5.606 0-5.776 4.265-8.9 3.053-2.224 8.059-2.224 3.352 0 7.559.97-.029.84-.029 1.354 0 1.67.143 4.736h-1.455q-.599-2.368-1.212-3.28-.599-.928-1.883-1.47-1.269-.556-3.109-.556-2.41 0-4.036.984-1.612.984-2.51 3.052-.885 2.054-.885 4.735 0 4.28 2.011 6.476 2.026 2.196 5.32 2.196 1.655 0 3.58-.741v-4.393q0-1.44-.142-1.855-.1-.256-.4-.413-.285-.157-1.825-.47-.172-.044-.528-.13v-1.04q3.28.157 4.935.157 1.212 0 5.334-.157zm23.95 10.512v-1.055q1.725-.314 1.996-.514.271-.2.271-.542 0-.2-.085-.456-.228-.6-1.483-3.594-2.012-.043-3.352-.043-1.098 0-3.666.043-1.583 3.737-1.583 4.093 0 .342.228.514.229.156 2.026.499v1.055q-1.797-.157-3.438-.157-1.768 0-3.594.157v-1.055q1.284-.271 1.769-.614.328-.228.599-.684.556-.899 3.323-6.96 1.754-3.837 5.006-11.353h1.155q1.327 3.351 5.492 12.508 2.31 5.092 2.767 5.79.313.486.627.685.314.2 1.983.628v1.055q-2.525-.157-4.693-.157-2.14 0-5.348.157zm-2.739-14.52l-2.91 6.719 2.825.014q1.012 0 2.91-.014zm23.693-4.663v-1.056q1.954.157 3.637.157 1.697 0 3.994-.157 1.74 2.34 10.468 12.937l-.057-7.76q-.07-2.837-.228-3.151-.142-.328-.485-.5-.342-.185-2.41-.47v-1.056q2.296.157 4.008.157 1.654 0 4.221-.157v1.056q-.442.085-.656.114-1.683.257-2.01.57-.329.3-.386 1.256-.142 1.996-.142 8.215 0 3.994.157 9.128-.67.2-1.327.47l-5.405-6.817-8.244-10.026.042 6.774.115 6.59q.042.741.142.941.1.185.285.3.314.185 2.026.499.2.028.599.114v1.055q-2.453-.157-3.937-.157-1.27 0-4.307.157v-1.055q.442-.086.67-.128 1.64-.257 1.954-.5.2-.157.286-.442.085-.3.185-4.25.157-5.72.157-9.813 0-1.37-.157-1.754-.143-.385-.528-.6-.385-.213-1.954-.498-.242-.043-.713-.143zm45.101-1.056v1.056l-.527.071q-1.897.228-2.282.57-.371.343-.371 1.327v.514l-.029 4.778.014 5.462.015 2.781q0 1.227.114 1.54.128.315.428.471.513.271 2.11.528l.528.086v1.055q-2.923-.157-5.148-.157-2.111 0-5.591.157v-1.055q2.225-.414 2.438-.5.329-.128.5-.37.214-.328.228-1.34.028-2.369.028-8.06l-.042-5.191v-.428q0-1.14-.328-1.469-.328-.328-2.211-.642-.214-.042-.613-.128v-1.056q3.665.157 5.49.157 1.955 0 5.25-.157zm13.952 5.677h-1.184q.285-2.596.428-5.677 4.25.157 7.63.157 3.28 0 8.002-.157v1.199q-1.427 1.954-4.95 7.06-5.576 8.087-6.803 10.14h6.29q1.726 0 2.254-.2.542-.213 1.027-.898.713-1.013 1.283-2.852h1.284l-.656 3.209q-.143.756-.4 2.581l-8.358-.157q-2.167 0-8.23.157v-1.14l8.03-11.682 3.638-5.491h-5.805q-1.17 0-1.612.157-.442.142-.656.485-.513.756-.898 2.11-.1.343-.314.999zm39.354 14.562v-1.055q1.725-.314 1.996-.514.27-.2.27-.542 0-.2-.085-.456-.228-.6-1.483-3.594-2.011-.043-3.352-.043-1.098 0-3.665.043-1.584 3.737-1.584 4.093 0 .342.229.514.228.156 2.025.499v1.055q-1.797-.157-3.437-.157-1.769 0-3.594.157v-1.055q1.283-.271 1.768-.614.328-.228.6-.684.555-.899 3.322-6.96 1.755-3.837 5.007-11.353h1.155q1.326 3.351 5.49 12.508 2.311 5.092 2.768 5.79.314.486.627.685.314.2 1.983.628v1.055q-2.525-.157-4.692-.157-2.14 0-5.349.157zm-2.74-14.52l-2.909 6.719 2.824.014q1.013 0 2.91-.014zm41.151.286h-1.326q-.984-3.01-1.213-3.409-.214-.4-.613-.556-.4-.171-2.539-.171h-1.383v13.321q0 2.482.171 2.995.085.271.414.443.342.156 2.595.556v1.055q-4.35-.157-5.59-.157-1.684 0-5.15.157v-1.055q2.283-.4 2.71-.628.286-.157.386-.513.114-.371.114-2.995v-13.18H550q-1.213 0-1.612.2-.385.2-.642.728-.385.799-1.084 3.21h-1.298q.243-2.098.3-2.896.057-.799.128-3.11 5.648.157 11.04.129 4.563-.043 6.56-.129.015 2.753.428 6.005zm22.395-6.005v1.056l-.528.071q-1.897.228-2.282.57-.37.343-.37 1.327v.514l-.029 4.778.014 5.462.015 2.781q0 1.227.114 1.54.128.315.428.471.513.271 2.11.528l.528.086v1.055q-2.924-.157-5.149-.157-2.11 0-5.59.157v-1.055q2.224-.414 2.438-.5.328-.128.5-.37.213-.328.228-1.34.028-2.369.028-8.06l-.043-5.191v-.428q0-1.14-.328-1.469-.328-.328-2.21-.642-.214-.042-.614-.128v-1.056q3.666.157 5.491.157 1.954 0 5.25-.157zm12.226 10.441q0-4.892 2.995-7.873 3.01-2.995 8.058-2.995 4.764 0 7.474 2.695 2.724 2.682 2.724 7.189 0 2.866-1.07 5.22-.841 1.868-2.182 3.152-1.326 1.283-2.724 1.911-2.082.927-5.02.927-4.878 0-7.574-2.696-2.681-2.695-2.681-7.53zm4.935-.77q0 5.191 1.882 7.63 1.398 1.826 4.008 1.826 1.797 0 3.024-.927 1.24-.927 1.854-2.967.613-2.054.613-4.764 0-2.068-.37-3.965-.371-1.897-1.013-2.966-.642-1.07-1.726-1.726-1.07-.656-2.596-.656-1.697 0-3.023.955-1.327.942-1.997 2.981-.656 2.026-.656 4.579zm28.471-8.615v-1.056q1.954.157 3.637.157 1.697 0 3.993-.157 1.74 2.34 10.469 12.937l-.057-7.76q-.071-2.837-.228-3.151-.143-.328-.485-.5-.342-.185-2.41-.47v-1.056q2.296.157 4.007.157 1.655 0 4.222-.157v1.056q-.442.085-.656.114-1.683.257-2.011.57-.328.3-.385 1.256-.143 1.996-.143 8.215 0 3.994.157 9.128-.67.2-1.326.47l-5.406-6.817-8.244-10.026.043 6.774.114 6.59q.043.741.143.941.1.185.285.3.314.185 2.025.499.2.028.6.114v1.055q-2.454-.157-3.937-.157-1.27 0-4.308.157v-1.055q.443-.086.67-.128 1.64-.257 1.955-.5.2-.157.285-.442.086-.3.185-4.25.157-5.72.157-9.813 0-1.37-.157-1.754-.142-.385-.527-.6-.385-.213-1.954-.498-.243-.043-.713-.143z" font-weight="700" font-size="25" font-family="Calisto MT" letter-spacing="9.219"/></g></svg>